# xmcd
#
# Track frame offsets:
#	150
#	21688
#	38330
#	55702
#	75858
#	94754
#	108376
#	129729
#	148287
#	165275
#	181921
#	222254
#
# Disc length: 3201
#
# Revision: 6
# Processed by: cddbd v1.5.1PL0 Copyright (c) Steve Scherf et al.
# Submitted via: Gronk 1.4
# Normalized: r5:TRMNUM
#
DISCID=990c7f0c
DTITLE=Garth Brooks - Double Live [CD 2)
DYEAR=1900
DGENRE=country
TTITLE0=Ain't Goin' Down ('Til The Sun Comes Up)
TTITLE1=Rodeo
TTITLE2=The Beaches Of Cheyenne
TTITLE3=Two Pina Coladas
TTITLE4=Wild As The Wind (The Duet With Trisha Yearwood)
TTITLE5=To Make You Feel My Love
TTITLE6=That Summer
TTITLE7=American Honky-Tonk Bar Association
TTITLE8=If Tomorrow Never Comes
TTITLE9=The Fever (aerosmith cover)
TTITLE10=Friends In Low Places (The Long Version)
TTITLE11=The Dance
EXTD=ID3G:   2
EXTT0=
EXTT1=
EXTT2=
EXTT3=
EXTT4=
EXTT5=
EXTT6=
EXTT7=
EXTT8=
EXTT9=
EXTT10=
EXTT11=
PLAYORDER=
